<svg width="16" height="12" viewBox="0 0 16 12" fill="none" xmlns="http://www.w3.org/2000/svg">
<path d="M0.916687 5.92936C0.916687 6.38769 1.29169 6.76269 1.75002 6.76269H12.1917L8.67502 10.2794C8.33335 10.621 8.33335 11.171 8.67502 11.5127C9.01669 11.8544 9.56669 11.8544 9.90835 11.5127L14.8334 6.59603C15.0167 6.41269 15.1 6.17103 15.0834 5.9377C15.0917 5.70436 15.0084 5.4627 14.8334 5.27936L9.90835 0.362695C9.56669 0.0210287 9.01669 0.0210287 8.67502 0.362695C8.33335 0.704362 8.33335 1.25436 8.67502 1.59603L12.1917 5.09603H1.75002C1.29169 5.09603 0.916687 5.47103 0.916687 5.92936Z" fill="white"/>
</svg>
